<svg t="1708313052781" class="icon" viewBox="0 0 1024 1024" version="1.1" xmlns="http://www.w3.org/2000/svg" p-id="4250" width="32" height="32"><path d="M863.307169 1023.679132h-223.713088a63.918025 63.918025 0 0 1-63.918025-63.918026v-191.754075a63.918025 63.918025 0 0 0-127.83605 0v191.754075a63.918025 63.918025 0 0 1-63.918025 63.918026h-191.754076c-63.087091 6.008294-127.83605-67.721148-127.83605-111.856544V575.869447A65.164427 65.164427 0 0 1 19.84491 464.364453l108.660642-108.660643c0-1.022688-0.31959-2.013418-0.31959-3.195901v-223.713088a63.918025 63.918025 0 0 1 127.83605 0v99.072939L464.618487 19.207367a65.611853 65.611853 0 0 1 58.133444-18.088802 63.566476 63.566476 0 0 1 48.322027 18.440351l433.236375 433.236374a63.918025 63.918025 0 0 1-45.126126 109.267864v349.759434c0 44.135396-51.741641 111.856544-95.877038 111.856544m-341.961434-875.676945l-348.129524 348.353237h21.092948a62.831419 62.831419 0 0 0-2.26909 15.979506v319.590126a79.482064 79.482064 0 0 0 31.959013 63.918025h95.877038v-127.83605a65.164427 65.164427 0 0 1 1.757745-14.413515 96.036833 96.036833 0 0 1-1.629909-17.545498v-63.918025a95.877038 95.877038 0 0 1 95.877037-95.877037h191.754076a95.877038 95.877038 0 0 1 95.877037 95.877037v63.918025a96.036833 96.036833 0 0 1-1.757745 17.545498 65.164427 65.164427 0 0 1 1.757745 14.413515v127.83605h95.877038a79.482064 79.482064 0 0 0 31.959013-63.918025v-319.590126a62.831419 62.831419 0 0 0-2.26909-15.979506h38.350815z"  p-id="4251"></path></svg>